<svg version="1.1" id="Layer_1" xmlns="http://www.w3.org/2000/svg" xmlns:xlink="http://www.w3.org/1999/xlink" x="0px" y="0px"
	 width="100%" viewBox="0 0 394 192" enable-background="new 0 0 394 192" xml:space="preserve">
<path fill="transparent" opacity="1.000000" stroke="none"
	d="
M395.000000,105.000000 
	C395.000000,134.322281 395.000000,163.644547 395.000000,192.983414 
	C263.727234,192.983414 132.454437,192.983414 1.090828,192.983414 
	C1.090828,129.084793 1.090828,65.169403 1.090828,1.127009 
	C132.333252,1.127009 263.666595,1.127009 395.000000,1.127009 
	C395.000000,31.419096 395.000000,61.740891 394.669769,92.449326 
	C378.882385,72.718407 363.425232,52.600861 347.669983,32.095360 
	C341.990295,38.774025 336.843628,44.825863 331.509674,51.097969 
	C344.119720,67.357155 356.510101,83.333092 368.950439,99.373451 
	C356.333130,115.257652 344.039429,130.734436 331.607849,146.384827 
	C336.990509,152.730194 342.142792,158.803940 347.520081,165.142975 
	C363.501190,144.899658 379.250610,124.949829 395.000000,105.000000 
M324.322693,55.523361 
	C316.612030,25.984888 291.085449,6.472355 259.894043,6.408494 
	C236.895035,6.361406 213.895584,6.422470 190.896561,6.499941 
	C169.732407,6.571230 148.550583,6.228588 127.409492,6.987000 
	C105.662476,7.767148 88.160446,22.977705 84.918053,42.556263 
	C81.108261,65.560829 91.311562,84.148590 112.671974,93.185341 
	C133.790604,102.119797 154.895279,111.087219 176.009018,120.033257 
	C182.821976,122.919960 188.603409,126.870117 190.918427,134.409576 
	C195.511307,149.367477 185.897659,162.865067 170.173355,162.995605 
	C143.675812,163.215576 117.175591,163.113052 90.676491,163.145676 
	C88.911446,163.147858 87.146400,163.145950 85.453613,163.145950 
	C85.453613,171.702393 85.453613,179.594025 85.453613,187.393326 
	C86.126900,187.558533 86.441696,187.703720 86.756294,187.703293 
	C112.754814,187.668488 138.754242,187.474548 164.751465,187.636841 
	C178.607010,187.723328 191.047501,184.212540 201.994736,175.965240 
	C203.018570,178.697510 204.042389,181.429764 204.699142,184.762726 
	C203.521088,185.422958 202.343048,186.083191 201.021561,186.823807 
	C201.599182,187.285141 201.834854,187.638107 202.069901,187.637680 
	C222.877762,187.600952 243.716141,188.232254 264.486603,187.319717 
	C299.832886,185.766785 324.340576,161.659698 326.060638,126.388840 
	C327.088562,105.310181 326.133667,84.134827 326.763184,62.919617 
	C328.049438,61.160885 329.335693,59.402153 330.621948,57.643417 
	C328.682861,57.120625 326.743774,56.597832 324.322693,55.523361 
M50.524342,41.025135 
	C35.605667,60.395508 20.686991,79.765884 5.631232,99.314247 
	C22.683779,121.128654 39.630825,142.808105 56.889542,164.886246 
	C62.379135,158.534409 67.454094,152.662338 72.754845,146.528992 
	C60.455521,130.662094 48.367889,115.068275 36.200981,99.372185 
	C48.605724,83.187202 60.719677,67.381630 72.966415,51.402798 
	C67.602425,45.065598 62.483868,39.018353 57.063892,32.615002 
	C54.796646,35.525082 52.876095,37.990170 50.524342,41.025135 
z"/>
<path fill="#040404" opacity="1.000000" stroke="none"
	d="
M395.000000,104.539368 
	C379.250610,124.949829 363.501190,144.899658 347.520081,165.142975 
	C342.142792,158.803940 336.990509,152.730194 331.607849,146.384827 
	C344.039429,130.734436 356.333130,115.257652 368.950439,99.373451 
	C356.510101,83.333092 344.119720,67.357155 331.509674,51.097969 
	C336.843628,44.825863 341.990295,38.774025 347.669983,32.095360 
	C363.425232,52.600861 378.882385,72.718407 394.669769,92.917984 
	C395.000000,96.692909 395.000000,100.385818 395.000000,104.539368 
z"/>
<path fill="#050505" opacity="1.000000" stroke="none"
	d="
M326.070068,63.002934 
	C326.133667,84.134827 327.088562,105.310181 326.060638,126.388840 
	C324.340576,161.659698 299.832886,185.766785 264.486603,187.319717 
	C243.716141,188.232254 222.877762,187.600952 202.069901,187.637680 
	C201.834854,187.638107 201.599182,187.285141 201.021561,186.823807 
	C202.343048,186.083191 203.521088,185.422958 205.214478,184.384781 
	C208.218033,181.551178 210.706253,179.095520 213.482986,176.404205 
	C215.886856,172.887848 218.302780,169.755249 220.016724,166.276749 
	C221.253479,163.766754 222.713547,163.052780 225.372879,163.084534 
	C236.868332,163.221832 248.366455,163.174896 259.863403,163.137207 
	C286.360779,163.050354 301.826843,147.820786 302.096069,121.340660 
	C302.260345,105.179871 302.240112,89.014687 302.047363,72.854523 
	C301.998322,68.743736 301.412018,64.525024 300.326050,60.560383 
	C295.175354,41.756248 280.527161,30.953859 259.759644,30.898491 
	C217.104233,30.784761 174.448166,30.901283 131.792374,30.931877 
	C130.460815,30.932833 129.120834,30.953100 127.799156,31.096701 
	C116.827789,32.288746 110.099754,38.185749 108.386993,48.067841 
	C106.625046,58.233727 111.049889,66.241745 121.105392,70.985603 
	C123.358665,72.048630 125.675903,72.976936 127.970024,73.952385 
	C149.076431,82.926666 170.232742,91.785942 191.270828,100.917603 
	C201.516418,105.364746 208.732910,113.016670 212.518967,123.589447 
	C219.138290,142.074341 216.448807,158.919098 203.016907,173.829559 
	C202.451202,174.321091 202.092682,174.753128 201.734161,175.185181 
	C191.047501,184.212540 178.607010,187.723328 164.751465,187.636841 
	C138.754242,187.474548 112.754814,187.668488 86.756294,187.703293 
	C86.441696,187.703720 86.126900,187.558533 85.453613,187.393326 
	C85.453613,179.594025 85.453613,171.702393 85.453613,163.145950 
	C87.146400,163.145950 88.911446,163.147858 90.676491,163.145676 
	C117.175591,163.113052 143.675812,163.215576 170.173355,162.995605 
	C185.897659,162.865067 195.511307,149.367477 190.918427,134.409576 
	C188.603409,126.870117 182.821976,122.919960 176.009018,120.033257 
	C154.895279,111.087219 133.790604,102.119797 112.671974,93.185341 
	C91.311562,84.148590 81.108261,65.560829 84.918053,42.556263 
	C88.160446,22.977705 105.662476,7.767148 127.409492,6.987000 
	C148.550583,6.228588 169.732407,6.571230 190.896561,6.499941 
	C213.895584,6.422470 236.895035,6.361406 259.894043,6.408494 
	C291.085449,6.472355 316.612030,25.984888 324.543152,56.197632 
	C325.199097,58.915577 325.634583,60.959255 326.070068,63.002934 
z"/>
<path fill="#040404" opacity="1.000000" stroke="none"
	d="
M50.739944,40.740196 
	C52.876095,37.990170 54.796646,35.525082 57.063892,32.615002 
	C62.483868,39.018353 67.602425,45.065598 72.966415,51.402798 
	C60.719677,67.381630 48.605724,83.187202 36.200981,99.372185 
	C48.367889,115.068275 60.455521,130.662094 72.754845,146.528992 
	C67.454094,152.662338 62.379135,158.534409 56.889542,164.886246 
	C39.630825,142.808105 22.683779,121.128654 5.631232,99.314247 
	C20.686991,79.765884 35.605667,60.395508 50.739944,40.740196 
z"/>
<path fill="transparent" opacity="1.000000" stroke="none"
	d="
M201.864441,175.575195 
	C202.092682,174.753128 202.451202,174.321091 203.492447,173.890564 
	C207.181595,174.807999 210.188034,175.723938 213.194489,176.639862 
	C210.706253,179.095520 208.218033,181.551178 205.398010,184.084427 
	C204.042389,181.429764 203.018570,178.697510 201.864441,175.575195 
z"/>
<path fill="transparent" opacity="1.000000" stroke="none"
	d="
M326.416626,62.961273 
	C325.634583,60.959255 325.199097,58.915577 324.784149,56.473473 
	C326.743774,56.597832 328.682861,57.120625 330.621948,57.643421 
	C329.335693,59.402153 328.049438,61.160885 326.416626,62.961273 
z"/>
<path fill="transparent" opacity="1.000000" stroke="none"
	d="
M213.483002,176.404221 
	C210.188034,175.723938 207.181595,174.807999 203.699615,173.831070 
	C216.448807,158.919098 219.138290,142.074341 212.518967,123.589447 
	C208.732910,113.016670 201.516418,105.364746 191.270828,100.917603 
	C170.232742,91.785942 149.076431,82.926666 127.970024,73.952385 
	C125.675903,72.976936 123.358665,72.048630 121.105392,70.985603 
	C111.049889,66.241745 106.625046,58.233727 108.386993,48.067841 
	C110.099754,38.185749 116.827789,32.288746 127.799156,31.096701 
	C129.120834,30.953100 130.460815,30.932833 131.792374,30.931877 
	C174.448166,30.901283 217.104233,30.784761 259.759644,30.898491 
	C280.527161,30.953859 295.175354,41.756248 300.326050,60.560383 
	C301.412018,64.525024 301.998322,68.743736 302.047363,72.854523 
	C302.240112,89.014687 302.260345,105.179871 302.096069,121.340660 
	C301.826843,147.820786 286.360779,163.050354 259.863403,163.137207 
	C248.366455,163.174896 236.868332,163.221832 225.372879,163.084534 
	C222.713547,163.052780 221.253479,163.766754 220.016724,166.276749 
	C218.302780,169.755249 215.886856,172.887848 213.483002,176.404221 
M205.415359,77.932602 
	C201.467560,80.019890 197.513138,82.094772 193.574097,84.198448 
	C190.511856,85.833870 189.942352,88.981979 192.385925,90.550087 
	C198.685318,94.592583 205.529541,97.786110 212.312912,101.402397 
	C213.039658,96.372566 213.053299,96.347946 209.382278,94.314766 
	C205.594772,92.217072 201.777039,90.173927 197.447098,87.821442 
	C201.403046,85.716774 204.484802,84.118736 207.526123,82.447144 
	C210.410645,80.861732 214.532104,79.945580 211.663879,74.722572 
	C209.804611,75.676147 207.943878,76.630478 205.415359,77.932602 
M238.092789,79.044479 
	C242.853134,81.867004 247.613495,84.689537 252.075745,87.335320 
	C248.985321,93.315590 238.177475,91.176796 238.018372,101.658051 
	C245.281967,97.795059 251.604401,94.530739 257.821625,91.076988 
	C260.248596,89.728752 260.269043,86.144768 257.814636,84.740807 
	C251.485199,81.120270 245.029953,77.719627 238.226151,74.013924 
	C238.115463,75.765900 238.035934,77.024963 238.092789,79.044479 
M231.169296,67.290901 
	C228.505249,73.513992 225.725739,79.690826 223.208923,85.972908 
	C220.579346,92.536476 218.202545,99.201332 215.706970,105.843918 
	C219.382599,107.037918 220.910873,105.773018 222.045898,102.705017 
	C225.790131,92.584137 229.842453,82.577415 233.751083,72.516998 
	C234.377396,70.904953 234.873657,69.242386 235.592545,67.124390 
	C233.919785,67.124390 232.940643,67.124390 231.169296,67.290901 
z"/>
<path fill="#131211" opacity="1.000000" stroke="none"
	d="
M205.749268,77.758698 
	C207.943878,76.630478 209.804611,75.676147 211.663879,74.722572 
	C214.532104,79.945580 210.410645,80.861732 207.526123,82.447144 
	C204.484802,84.118736 201.403046,85.716774 197.447098,87.821442 
	C201.777039,90.173927 205.594772,92.217072 209.382278,94.314766 
	C213.053299,96.347946 213.039658,96.372566 212.312912,101.402397 
	C205.529541,97.786110 198.685318,94.592583 192.385925,90.550087 
	C189.942352,88.981979 190.511856,85.833870 193.574097,84.198448 
	C197.513138,82.094772 201.467560,80.019890 205.749268,77.758698 
z"/>
<path fill="#121211" opacity="1.000000" stroke="none"
	d="
M238.024597,78.664253 
	C238.035934,77.024963 238.115463,75.765900 238.226151,74.013924 
	C245.029953,77.719627 251.485199,81.120270 257.814636,84.740807 
	C260.269043,86.144768 260.248596,89.728752 257.821625,91.076988 
	C251.604401,94.530739 245.281967,97.795059 238.018372,101.658051 
	C238.177475,91.176796 248.985321,93.315590 252.075745,87.335320 
	C247.613495,84.689537 242.853134,81.867004 238.024597,78.664253 
z"/>
<path fill="#131312" opacity="1.000000" stroke="none"
	d="
M231.565399,67.207642 
	C232.940643,67.124390 233.919785,67.124390 235.592545,67.124390 
	C234.873657,69.242386 234.377396,70.904953 233.751083,72.516998 
	C229.842453,82.577415 225.790131,92.584137 222.045898,102.705017 
	C220.910873,105.773018 219.382599,107.037918 215.706970,105.843918 
	C218.202545,99.201332 220.579346,92.536476 223.208923,85.972908 
	C225.725739,79.690826 228.505249,73.513992 231.565399,67.207642 
z"/>
</svg>